<svg xmlns="http://www.w3.org/2000/svg" xmlns:xlink="http://www.w3.org/1999/xlink" xmlns:lucid="lucid" width="1680" height="780"><g transform="translate(-40 0)" lucid:page-tab-id="0_0"><path d="M740 28c0-4.42 3.58-8 8-8h284c4.42 0 8 3.58 8 8v144c0 4.42-3.58 8-8 8H748c-4.42 0-8-3.58-8-8z" stroke="#000" fill="#c7e8ac"/><use xlink:href="#a" transform="matrix(1,0,0,1,745,25) translate(27.59876543209877 82.82222222222222)"/><use xlink:href="#b" transform="matrix(1,0,0,1,745,25) translate(151.87037037037038 82.82222222222222)"/><path d="M240 308c0-4.42 3.58-8 8-8h284c4.42 0 8 3.58 8 8v144c0 4.42-3.58 8-8 8H248c-4.42 0-8-3.58-8-8z" stroke="#000" fill="#ffc374"/><use xlink:href="#c" transform="matrix(1,0,0,1,245,305) translate(18.09259259259259 64.15555555555555)"/><use xlink:href="#d" transform="matrix(1,0,0,1,245,305) translate(99.24074074074075 64.15555555555555)"/><use xlink:href="#e" transform="matrix(1,0,0,1,245,305) translate(133.80864197530866 64.15555555555555)"/><use xlink:href="#f" transform="matrix(1,0,0,1,245,305) translate(223.51234567901238 64.15555555555555)"/><use xlink:href="#g" transform="matrix(1,0,0,1,245,305) translate(93.14814814814815 101.48888888888888)"/><use xlink:href="#h" transform="matrix(1,0,0,1,245,305) translate(119.07407407407408 101.48888888888888)"/><use xlink:href="#i" transform="matrix(1,0,0,1,245,305) translate(179.5679012345679 101.48888888888888)"/><path d="M60 608c0-4.42 3.58-8 8-8h264c4.42 0 8 3.58 8 8v144c0 4.42-3.58 8-8 8H68c-4.42 0-8-3.58-8-8z" stroke="#000" fill="#c92d39" fill-opacity=".6"/><use xlink:href="#j" transform="matrix(1,0,0,1,65,605) translate(51.25925925925925 82.82222222222222)"/><use xlink:href="#k" transform="matrix(1,0,0,1,65,605) translate(144.41975308641975 82.82222222222222)"/><use xlink:href="#l" transform="matrix(1,0,0,1,65,605) translate(201.4567901234568 82.82222222222222)"/><path d="M440 608c0-4.42 3.58-8 8-8h264c4.42 0 8 3.58 8 8v144c0 4.42-3.58 8-8 8H448c-4.42 0-8-3.58-8-8z" stroke="#000" fill="#ffeca9"/><use xlink:href="#j" transform="matrix(1,0,0,1,445,605) translate(51.25925925925925 82.82222222222222)"/><use xlink:href="#k" transform="matrix(1,0,0,1,445,605) translate(144.41975308641975 82.82222222222222)"/><use xlink:href="#i" transform="matrix(1,0,0,1,445,605) translate(201.4567901234568 82.82222222222222)"/><path d="M1220 308c0-4.42 3.58-8 8-8h284c4.42 0 8 3.58 8 8v144c0 4.42-3.58 8-8 8h-284c-4.42 0-8-3.58-8-8z" stroke="#000" fill="#b2b2b2"/><use xlink:href="#c" transform="matrix(1,0,0,1,1225,305) translate(18.09259259259259 64.15555555555555)"/><use xlink:href="#d" transform="matrix(1,0,0,1,1225,305) translate(99.24074074074075 64.15555555555555)"/><use xlink:href="#e" transform="matrix(1,0,0,1,1225,305) translate(133.80864197530866 64.15555555555555)"/><use xlink:href="#f" transform="matrix(1,0,0,1,1225,305) translate(223.51234567901238 64.15555555555555)"/><use xlink:href="#m" transform="matrix(1,0,0,1,1225,305) translate(93.14814814814815 101.48888888888888)"/><use xlink:href="#h" transform="matrix(1,0,0,1,1225,305) translate(119.07407407407408 101.48888888888888)"/><use xlink:href="#n" transform="matrix(1,0,0,1,1225,305) translate(179.5679012345679 101.48888888888888)"/><path d="M1040 608c0-4.42 3.58-8 8-8h264c4.42 0 8 3.58 8 8v144c0 4.42-3.58 8-8 8h-264c-4.42 0-8-3.58-8-8z" stroke="#000"/><use xlink:href="#o" transform="matrix(1,0,0,1,1045,605) translate(51.25925925925925 82.82222222222222)"/><use xlink:href="#p" transform="matrix(1,0,0,1,1045,605) translate(144.41975308641975 82.82222222222222)"/><use xlink:href="#q" transform="matrix(1,0,0,1,1045,605) translate(201.4567901234568 82.82222222222222)"/><path d="M1420 608c0-4.42 3.58-8 8-8h264c4.42 0 8 3.58 8 8v144c0 4.42-3.58 8-8 8h-264c-4.42 0-8-3.58-8-8z" stroke="#000" fill="#fff"/><use xlink:href="#j" transform="matrix(1,0,0,1,1425,605) translate(51.25925925925925 82.82222222222222)"/><use xlink:href="#k" transform="matrix(1,0,0,1,1425,605) translate(144.41975308641975 82.82222222222222)"/><use xlink:href="#n" transform="matrix(1,0,0,1,1425,605) translate(201.4567901234568 82.82222222222222)"/><path d="M739.07 100.25l-348.64 199" stroke="#666" fill="none"/><path d="M739.5 100.58l-.2.1-.5-.86.7-.4zM390.6 299.5H389l1.2-.7z" fill="#666"/><path d="M1040.93 100.26l328.64 198.98" stroke="#666" fill="none"/><path d="M1041.2 99.84l-.52.85-.18-.12v-1.16zM1370.97 299.5h-1.57l.42-.7z" fill="#666"/><path d="M389.6 460.8L200.4 599.2" stroke="#666" fill="none"/><path d="M389.88 461.2l-.52-.7h1.5zM200.64 599.5h-1.5l.98-.7z" fill="#666"/><path d="M579.6 599.2L390.4 460.8" stroke="#666" fill="none"/><path d="M580.85 599.5h-1.5l.53-.7zM390.12 461.2l-.97-.7h1.5z" fill="#666"/><path d="M1180.4 599.2l189.2-138.4" stroke="#666" fill="none"/><path d="M1180.64 599.5h-1.5l.98-.7zM1369.88 461.2l-.52-.7h1.5z" fill="#666"/><path d="M1559.6 599.2l-191.13-137" stroke="#666" fill="none"/><path d="M1560.86 599.5h-1.5l.5-.7z" fill="#666"/><path d="M1368.48 462.22l-.42-.3" stroke="#666" fill="none"/><defs><path fill="#333" d="M125-24c46 0 70-25 89-51l25 16C214-24 183 4 123 4 8 4-5-146 60-208c32-50 158-61 191-5 5 7 9 14 11 22l-32 10c-9-28-33-43-69-43-74 0-108 51-108 125 0 46 24 75 72 75" id="r"/><path fill="#333" d="M67-158c15-20 31-36 64-36 94 0 33 127 27 194h-32l25-140c3-38-53-32-70-12C52-117 51-51 37 0H6l51-261h31" id="s"/><path fill="#333" d="M165-48c-4 18 1 34 23 27l-3 20c-29 8-62 0-52-35h-2C116-14 99 4 63 4 30 4 8-16 8-49c0-68 71-67 138-67 10-26 0-56-31-54-26 1-42 9-47 31l-32-5c8-67 160-71 144 15-5 28-9 54-15 81zM42-50c3 52 80 24 89-6 7-12 7-24 11-38-47 1-103-4-100 44" id="t"/><path fill="#333" d="M67-158c22-48 132-52 116 29L158 0h-32l25-140c3-38-53-32-70-12C52-117 51-52 38 0H6l36-190h30" id="u"/><path fill="#333" d="M111-194c62-3 86 47 72 106H45c-7 38 6 69 45 68 27-1 43-14 53-32l24 11C152-15 129 4 87 4 38 3 12-23 12-71c0-70 32-119 99-123zm44 81c14-66-71-72-95-28-4 8-8 17-11 28h106" id="v"/><path fill="#333" d="M6 0l50-261h32L37 0H6" id="w"/><g id="a"><use transform="matrix(0.08641975308641976,0,0,0.08641975308641976,0,0)" xlink:href="#r"/><use transform="matrix(0.08641975308641976,0,0,0.08641975308641976,22.38271604938272,0)" xlink:href="#s"/><use transform="matrix(0.08641975308641976,0,0,0.08641975308641976,39.66666666666667,0)" xlink:href="#t"/><use transform="matrix(0.08641975308641976,0,0,0.08641975308641976,56.95061728395062,0)" xlink:href="#u"/><use transform="matrix(0.08641975308641976,0,0,0.08641975308641976,74.23456790123457,0)" xlink:href="#u"/><use transform="matrix(0.08641975308641976,0,0,0.08641975308641976,91.51851851851853,0)" xlink:href="#v"/><use transform="matrix(0.08641975308641976,0,0,0.08641975308641976,108.80246913580245,0)" xlink:href="#w"/></g><path fill="#333" d="M133-28C103 26-5 8 13-77c13-62 24-115 90-117 29-1 46 15 56 35l19-102h32L160 0h-30zM45-64c-2 27 10 43 35 43 54-1 69-50 69-103 0-29-15-46-42-46-53-1-58 58-62 106" id="x"/><path fill="#333" d="M66-151c12-25 30-51 66-40l-6 26C45-176 58-65 38 0H6l36-190h30" id="y"/><path fill="#333" d="M55-144c13 50 104 24 104 88C159 21 15 23 1-39l26-10c6 40 102 42 102-4-13-50-104-23-104-87 0-71 143-71 148-8l-29 4c-5-35-85-37-89 0" id="z"/><g id="b"><use transform="matrix(0.08641975308641976,0,0,0.08641975308641976,0,0)" xlink:href="#t"/><use transform="matrix(0.08641975308641976,0,0,0.08641975308641976,17.283950617283953,0)" xlink:href="#x"/><use transform="matrix(0.08641975308641976,0,0,0.08641975308641976,34.567901234567906,0)" xlink:href="#x"/><use transform="matrix(0.08641975308641976,0,0,0.08641975308641976,51.851851851851855,0)" xlink:href="#y"/><use transform="matrix(0.08641975308641976,0,0,0.08641975308641976,62.13580246913581,0)" xlink:href="#v"/><use transform="matrix(0.08641975308641976,0,0,0.08641975308641976,79.41975308641976,0)" xlink:href="#z"/><use transform="matrix(0.08641975308641976,0,0,0.08641975308641976,94.97530864197532,0)" xlink:href="#z"/></g><path fill="#333" d="M179 0l23-115H67L45 0H11l48-248h34L72-143h135l21-105h32L212 0h-33" id="A"/><g id="c"><use transform="matrix(0.08641975308641976,0,0,0.08641975308641976,0,0)" xlink:href="#A"/><use transform="matrix(0.08641975308641976,0,0,0.08641975308641976,22.38271604938272,0)" xlink:href="#t"/><use transform="matrix(0.08641975308641976,0,0,0.08641975308641976,39.66666666666667,0)" xlink:href="#z"/><use transform="matrix(0.08641975308641976,0,0,0.08641975308641976,55.22222222222223,0)" xlink:href="#s"/></g><path fill="#333" d="M30-147c31-64 166-65 159 27C183-49 158 1 86 4 9 8 1-88 30-147zM88-20c53 0 68-48 68-100 0-31-11-51-44-50-52 1-68 46-68 97 0 32 13 53 44 53" id="B"/><path fill="#333" d="M76-167L44 0H12l33-167H18l4-23h27c3-47 25-81 82-69l-4 24c-35-8-44 15-46 45h37l-5 23H76" id="C"/><g id="d"><use transform="matrix(0.08641975308641976,0,0,0.08641975308641976,0,0)" xlink:href="#B"/><use transform="matrix(0.08641975308641976,0,0,0.08641975308641976,17.283950617283953,0)" xlink:href="#C"/></g><path fill="#333" d="M67-162c32-53 139-36 121 50C175-51 163 2 97 4 68 4 52-11 42-31 38 6 28 39 22 75H-9l50-265h29c-1 10 0 20-3 28zm89 36c0-26-10-43-35-43-54 0-67 50-69 103-1 29 14 45 42 46 53 0 62-58 62-106" id="D"/><path fill="#333" d="M67 3c-93-2-31-127-26-193h32L48-50c-3 39 53 32 70 12 30-34 30-101 43-152h32L157 0h-30c1-10 6-24 4-33-14 20-29 37-64 36" id="E"/><path fill="#333" d="M68-162c25-46 127-43 121 31C183-60 169 1 98 4 69 5 53-11 43-31L36 0H5l52-261h31zm88 36c2-27-9-43-34-43-55 0-70 51-70 103 0 29 15 45 43 46 52 0 58-58 61-106" id="F"/><path fill="#333" d="M50-231l6-30h32l-6 30H50zM6 0l37-190h31L37 0H6" id="G"/><path fill="#333" d="M44-68c0 29 11 47 38 47 30 0 42-19 51-41l28 9C148-21 126 4 82 4 31 4 10-29 12-85c3-77 74-140 146-93 12 8 15 23 18 40l-31 5c-1-22-13-36-36-36-52 0-65 49-65 101" id="H"/><g id="e"><use transform="matrix(0.08641975308641976,0,0,0.08641975308641976,0,0)" xlink:href="#D"/><use transform="matrix(0.08641975308641976,0,0,0.08641975308641976,17.283950617283953,0)" xlink:href="#E"/><use transform="matrix(0.08641975308641976,0,0,0.08641975308641976,34.567901234567906,0)" xlink:href="#F"/><use transform="matrix(0.08641975308641976,0,0,0.08641975308641976,51.851851851851855,0)" xlink:href="#w"/><use transform="matrix(0.08641975308641976,0,0,0.08641975308641976,58.67901234567903,0)" xlink:href="#G"/><use transform="matrix(0.08641975308641976,0,0,0.08641975308641976,65.50617283950619,0)" xlink:href="#H"/></g><path fill="#333" d="M127 0L80-88 50-66 37 0H6l51-261h31L57-100l99-90h39l-93 82L161 0h-34" id="I"/><path fill="#333" d="M198-190L69 30C53 58 25 83-20 72c4-11-1-27 19-22 33-1 43-29 59-52L20-190h32L79-34l84-156h35" id="J"/><g id="f"><use transform="matrix(0.08641975308641976,0,0,0.08641975308641976,0,0)" xlink:href="#I"/><use transform="matrix(0.08641975308641976,0,0,0.08641975308641976,15.555555555555557,0)" xlink:href="#v"/><use transform="matrix(0.08641975308641976,0,0,0.08641975308641976,32.839506172839506,0)" xlink:href="#J"/></g><path fill="#333" d="M9 0l6-27h63l36-188-63 39 6-31 66-41h29L110-27h60l-5 27H9" id="K"/><use transform="matrix(0.08641975308641976,0,0,0.08641975308641976,0,0)" xlink:href="#K" id="g"/><g id="h"><use transform="matrix(0.08641975308641976,0,0,0.08641975308641976,0,0)" xlink:href="#t"/><use transform="matrix(0.08641975308641976,0,0,0.08641975308641976,17.283950617283953,0)" xlink:href="#u"/><use transform="matrix(0.08641975308641976,0,0,0.08641975308641976,34.567901234567906,0)" xlink:href="#x"/></g><path fill="#333" d="M123-251c66 0 92 69 53 113C138-94 73-75 39-27h128l-5 27H-2c17-92 123-93 159-163 14-28-1-64-36-62-29 2-46 17-54 41l-30-6c13-36 37-61 86-61" id="L"/><use transform="matrix(0.08641975308641976,0,0,0.08641975308641976,0,0)" xlink:href="#L" id="i"/><path fill="#333" d="M238-179c0 84-86 86-175 82L45 0H11l48-248c82 0 179-12 179 69zm-34 1c0-53-64-42-116-43l-19 98c63 0 135 9 135-55" id="M"/><g id="j"><use transform="matrix(0.08641975308641976,0,0,0.08641975308641976,0,0)" xlink:href="#M"/><use transform="matrix(0.08641975308641976,0,0,0.08641975308641976,20.740740740740744,0)" xlink:href="#E"/><use transform="matrix(0.08641975308641976,0,0,0.08641975308641976,38.0246913580247,0)" xlink:href="#F"/><use transform="matrix(0.08641975308641976,0,0,0.08641975308641976,55.308641975308646,0)" xlink:href="#w"/><use transform="matrix(0.08641975308641976,0,0,0.08641975308641976,62.13580246913581,0)" xlink:href="#G"/><use transform="matrix(0.08641975308641976,0,0,0.08641975308641976,68.96296296296298,0)" xlink:href="#H"/></g><g id="k"><use transform="matrix(0.08641975308641976,0,0,0.08641975308641976,0,0)" xlink:href="#I"/><use transform="matrix(0.08641975308641976,0,0,0.08641975308641976,15.555555555555557,0)" xlink:href="#v"/><use transform="matrix(0.08641975308641976,0,0,0.08641975308641976,32.839506172839506,0)" xlink:href="#J"/></g><use transform="matrix(0.08641975308641976,0,0,0.08641975308641976,0,0)" xlink:href="#K" id="l"/><path fill="#333" d="M148-71c0-36-31-44-71-41l5-28c46 3 81-6 81-50 0-23-15-35-39-35-30 0-49 17-56 41l-32-3c12-39 42-63 90-64 43 0 69 19 71 60 1 43-30 58-65 66 27 5 49 22 49 53 0 85-133 99-164 35-4-7-7-15-9-22l29-9c8 25 25 45 58 45 34 1 53-17 53-48" id="N"/><use transform="matrix(0.08641975308641976,0,0,0.08641975308641976,0,0)" xlink:href="#N" id="m"/><path fill="#333" d="M149-56L138 0h-32l11-56H2l5-25 144-167h35L154-81h33l-5 25h-33zm-4-147L40-81h82" id="O"/><use transform="matrix(0.08641975308641976,0,0,0.08641975308641976,0,0)" xlink:href="#O" id="n"/><path fill="#fff" d="M238-179c0 84-86 86-175 82L45 0H11l48-248c82 0 179-12 179 69zm-34 1c0-53-64-42-116-43l-19 98c63 0 135 9 135-55" id="P"/><path fill="#fff" d="M67 3c-93-2-31-127-26-193h32L48-50c-3 39 53 32 70 12 30-34 30-101 43-152h32L157 0h-30c1-10 6-24 4-33-14 20-29 37-64 36" id="Q"/><path fill="#fff" d="M68-162c25-46 127-43 121 31C183-60 169 1 98 4 69 5 53-11 43-31L36 0H5l52-261h31zm88 36c2-27-9-43-34-43-55 0-70 51-70 103 0 29 15 45 43 46 52 0 58-58 61-106" id="R"/><path fill="#fff" d="M6 0l50-261h32L37 0H6" id="S"/><path fill="#fff" d="M50-231l6-30h32l-6 30H50zM6 0l37-190h31L37 0H6" id="T"/><path fill="#fff" d="M44-68c0 29 11 47 38 47 30 0 42-19 51-41l28 9C148-21 126 4 82 4 31 4 10-29 12-85c3-77 74-140 146-93 12 8 15 23 18 40l-31 5c-1-22-13-36-36-36-52 0-65 49-65 101" id="U"/><g id="o"><use transform="matrix(0.08641975308641976,0,0,0.08641975308641976,0,0)" xlink:href="#P"/><use transform="matrix(0.08641975308641976,0,0,0.08641975308641976,20.740740740740744,0)" xlink:href="#Q"/><use transform="matrix(0.08641975308641976,0,0,0.08641975308641976,38.0246913580247,0)" xlink:href="#R"/><use transform="matrix(0.08641975308641976,0,0,0.08641975308641976,55.308641975308646,0)" xlink:href="#S"/><use transform="matrix(0.08641975308641976,0,0,0.08641975308641976,62.13580246913581,0)" xlink:href="#T"/><use transform="matrix(0.08641975308641976,0,0,0.08641975308641976,68.96296296296298,0)" xlink:href="#U"/></g><path fill="#fff" d="M127 0L80-88 50-66 37 0H6l51-261h31L57-100l99-90h39l-93 82L161 0h-34" id="V"/><path fill="#fff" d="M111-194c62-3 86 47 72 106H45c-7 38 6 69 45 68 27-1 43-14 53-32l24 11C152-15 129 4 87 4 38 3 12-23 12-71c0-70 32-119 99-123zm44 81c14-66-71-72-95-28-4 8-8 17-11 28h106" id="W"/><path fill="#fff" d="M198-190L69 30C53 58 25 83-20 72c4-11-1-27 19-22 33-1 43-29 59-52L20-190h32L79-34l84-156h35" id="X"/><g id="p"><use transform="matrix(0.08641975308641976,0,0,0.08641975308641976,0,0)" xlink:href="#V"/><use transform="matrix(0.08641975308641976,0,0,0.08641975308641976,15.555555555555557,0)" xlink:href="#W"/><use transform="matrix(0.08641975308641976,0,0,0.08641975308641976,32.839506172839506,0)" xlink:href="#X"/></g><path fill="#fff" d="M148-71c0-36-31-44-71-41l5-28c46 3 81-6 81-50 0-23-15-35-39-35-30 0-49 17-56 41l-32-3c12-39 42-63 90-64 43 0 69 19 71 60 1 43-30 58-65 66 27 5 49 22 49 53 0 85-133 99-164 35-4-7-7-15-9-22l29-9c8 25 25 45 58 45 34 1 53-17 53-48" id="Y"/><use transform="matrix(0.08641975308641976,0,0,0.08641975308641976,0,0)" xlink:href="#Y" id="q"/></defs></g></svg>