<svg xmlns="http://www.w3.org/2000/svg" xmlns:xlink="http://www.w3.org/1999/xlink" xmlns:lucid="lucid" width="1500" height="342"><g transform="translate(-185.19999999999993 -120)" lucid:page-tab-id="0_0"><path d="M205.2 145c0-2.76 2.24-5 5-5h350c2.76 0 5 2.24 5 5v166c0 2.76-2.24 5-5 5h-350c-2.76 0-5-2.24-5-5z" stroke="#666" stroke-width="2" fill="#fff"/><path d="M205.2 177.6h360" stroke="#666" stroke-width="2" fill="none"/><use xlink:href="#a" transform="matrix(1,0,0,1,213.19999999999993,148) translate(58.224999999999994 14.6)"/><use xlink:href="#b" transform="matrix(1,0,0,1,213.19999999999993,148) translate(124.175 14.6)"/><use xlink:href="#c" transform="matrix(1,0,0,1,213.19999999999993,148) translate(204.975 14.6)"/><use xlink:href="#d" transform="matrix(1,0,0,1,217.19999999999993,185.6) translate(69.675 65.10000000000001)"/><use xlink:href="#e" transform="matrix(1,0,0,1,217.19999999999993,185.6) translate(156.625 65.10000000000001)"/><use xlink:href="#f" transform="matrix(1,0,0,1,217.19999999999993,185.6) translate(229.425 65.10000000000001)"/><path d="M755.2 145c0-2.76 2.24-5 5-5h350c2.76 0 5 2.24 5 5v166c0 2.76-2.24 5-5 5h-350c-2.76 0-5-2.24-5-5z" stroke="#666" stroke-width="2" fill="#fff"/><path d="M755.2 177.6h360" stroke="#666" stroke-width="2" fill="none"/><use xlink:href="#a" transform="matrix(1,0,0,1,763.1999999999999,148) translate(58.224999999999994 14.6)"/><use xlink:href="#b" transform="matrix(1,0,0,1,763.1999999999999,148) translate(124.175 14.6)"/><use xlink:href="#c" transform="matrix(1,0,0,1,763.1999999999999,148) translate(204.975 14.6)"/><use xlink:href="#d" transform="matrix(1,0,0,1,767.1999999999999,185.6) translate(69.675 65.10000000000001)"/><use xlink:href="#e" transform="matrix(1,0,0,1,767.1999999999999,185.6) translate(156.625 65.10000000000001)"/><use xlink:href="#f" transform="matrix(1,0,0,1,767.1999999999999,185.6) translate(229.425 65.10000000000001)"/><path d="M1305.2 145c0-2.76 2.24-5 5-5h350c2.76 0 5 2.24 5 5v166c0 2.76-2.24 5-5 5h-350c-2.76 0-5-2.24-5-5z" stroke="#666" stroke-width="2" fill="#fff"/><path d="M1305.2 177.6h360" stroke="#666" stroke-width="2" fill="none"/><use xlink:href="#a" transform="matrix(1,0,0,1,1313.1999999999998,148) translate(58.224999999999994 14.6)"/><use xlink:href="#b" transform="matrix(1,0,0,1,1313.1999999999998,148) translate(124.175 14.6)"/><use xlink:href="#c" transform="matrix(1,0,0,1,1313.1999999999998,148) translate(204.975 14.6)"/><use xlink:href="#d" transform="matrix(1,0,0,1,1317.1999999999998,185.6) translate(69.675 65.10000000000001)"/><use xlink:href="#e" transform="matrix(1,0,0,1,1317.1999999999998,185.6) translate(156.625 65.10000000000001)"/><use xlink:href="#f" transform="matrix(1,0,0,1,1317.1999999999998,185.6) translate(229.425 65.10000000000001)"/><path d="M568.7 228h160.64" stroke="#999" stroke-width="5" fill="none"/><path d="M568.76 230.5h-2.56v-5h2.56z" fill="#999"/><path d="M746.1 228l-14.26 4.64v-9.28z" stroke="#999" stroke-width="5" fill="#999"/><path d="M1118.7 228h160.64" stroke="#999" stroke-width="5" fill="none"/><path d="M1118.76 230.5h-2.56v-5h2.56z" fill="#999"/><path d="M1296.1 228l-14.26 4.64v-9.28z" stroke="#999" stroke-width="5" fill="#999"/><path d="M205.2 305c0-2.76 2.24-5 5-5h350c2.76 0 5 2.24 5 5v132c0 2.76-2.24 5-5 5h-350c-2.76 0-5-2.24-5-5z" stroke="#666" stroke-width="2" fill="#fff"/><g><use xlink:href="#g" transform="matrix(1,0,0,1,213.19999999999993,308) translate(45.07499999999999 55.8)"/><use xlink:href="#h" transform="matrix(1,0,0,1,213.19999999999993,308) translate(114.975 55.8)"/><use xlink:href="#i" transform="matrix(1,0,0,1,213.19999999999993,308) translate(158.975 55.8)"/><use xlink:href="#j" transform="matrix(1,0,0,1,213.19999999999993,308) translate(193.975 55.8)"/><use xlink:href="#k" transform="matrix(1,0,0,1,213.19999999999993,308) translate(239.925 55.8)"/><use xlink:href="#l" transform="matrix(1,0,0,1,213.19999999999993,308) translate(54.20000000000002 77.4)"/></g><path d="M755.2 305c0-2.76 2.24-5 5-5h350c2.76 0 5 2.24 5 5v132c0 2.76-2.24 5-5 5h-350c-2.76 0-5-2.24-5-5z" stroke="#666" stroke-width="2" fill="#fff"/><g><use xlink:href="#g" transform="matrix(1,0,0,1,763.1999999999534,308) translate(45.07499999999999 55.8)"/><use xlink:href="#h" transform="matrix(1,0,0,1,763.1999999999534,308) translate(114.975 55.8)"/><use xlink:href="#i" transform="matrix(1,0,0,1,763.1999999999534,308) translate(158.975 55.8)"/><use xlink:href="#j" transform="matrix(1,0,0,1,763.1999999999534,308) translate(193.975 55.8)"/><use xlink:href="#k" transform="matrix(1,0,0,1,763.1999999999534,308) translate(239.925 55.8)"/><use xlink:href="#l" transform="matrix(1,0,0,1,763.1999999999534,308) translate(54.20000000000002 77.4)"/></g><path d="M1305.2 305c0-2.76 2.24-5 5-5h350c2.76 0 5 2.24 5 5v132c0 2.76-2.24 5-5 5h-350c-2.76 0-5-2.24-5-5z" stroke="#666" stroke-width="2" fill="#fff"/><g><use xlink:href="#g" transform="matrix(1,0,0,1,1313.1999999999534,308) translate(45.07499999999999 55.8)"/><use xlink:href="#h" transform="matrix(1,0,0,1,1313.1999999999534,308) translate(114.975 55.8)"/><use xlink:href="#i" transform="matrix(1,0,0,1,1313.1999999999534,308) translate(158.975 55.8)"/><use xlink:href="#j" transform="matrix(1,0,0,1,1313.1999999999534,308) translate(193.975 55.8)"/><use xlink:href="#k" transform="matrix(1,0,0,1,1313.1999999999534,308) translate(239.925 55.8)"/><use xlink:href="#l" transform="matrix(1,0,0,1,1313.1999999999534,308) translate(54.20000000000002 77.4)"/></g><defs><path d="M169-182c-1-43-94-46-97-3 18 66 151 10 154 114 3 95-165 93-204 36-6-8-10-19-12-30l50-8c3 46 112 56 116 5-17-69-150-10-154-114-4-87 153-88 188-35 5 8 8 18 10 28" id="m"/><path d="M115-3C79 11 28 4 28-45v-112H4v-33h27l15-45h31v45h36v33H77v99c-1 23 16 31 38 25v30" id="n"/><path d="M135-150c-39-12-60 13-60 57V0H25l-1-190h47c2 13-1 29 3 40 6-28 27-53 61-41v41" id="o"/><path d="M185-48c-13 30-37 53-82 52C43 2 14-33 14-96s30-98 90-98c62 0 83 45 84 108H66c0 31 8 55 39 56 18 0 30-7 34-22zm-45-69c5-46-57-63-70-21-2 6-4 13-4 21h74" id="p"/><path d="M133-34C117-15 103 5 69 4 32 3 11-16 11-54c-1-60 55-63 116-61 1-26-3-47-28-47-18 1-26 9-28 27l-52-2c7-38 36-58 82-57s74 22 75 68l1 82c-1 14 12 18 25 15v27c-30 8-71 5-69-32zm-48 3c29 0 43-24 42-57-32 0-66-3-65 30 0 17 8 27 23 27" id="q"/><path d="M220-157c-53 9-28 100-34 157h-49v-107c1-27-5-49-29-50C55-147 81-57 75 0H25l-1-190h47c2 12-1 28 3 38 10-53 101-56 108 0 13-22 24-43 59-42 82 1 51 116 57 194h-49v-107c-1-25-5-48-29-50" id="r"/><g id="a"><use transform="matrix(0.05,0,0,0.05,0,0)" xlink:href="#m"/><use transform="matrix(0.05,0,0,0.05,12,0)" xlink:href="#n"/><use transform="matrix(0.05,0,0,0.05,17.95,0)" xlink:href="#o"/><use transform="matrix(0.05,0,0,0.05,24.95,0)" xlink:href="#p"/><use transform="matrix(0.05,0,0,0.05,34.95,0)" xlink:href="#q"/><use transform="matrix(0.05,0,0,0.05,44.95,0)" xlink:href="#r"/></g><path d="M25-224v-37h50v37H25zM25 0v-190h50V0H25" id="s"/><path d="M88-194c31-1 46 15 58 34l-1-101h50l1 261h-48c-2-10 0-23-3-31C134-8 116 4 84 4 32 4 16-41 15-95c0-56 19-97 73-99zm17 164c33 0 40-30 41-66 1-37-9-64-41-64s-38 30-39 65c0 43 13 65 39 65" id="t"/><path d="M135-194c87-1 58 113 63 194h-50c-7-57 23-157-34-157-59 0-34 97-39 157H25l-1-190h47c2 12-1 28 3 38 12-26 28-41 61-42" id="u"/><path d="M121-226c-27-7-43 5-38 36h38v33H83V0H34v-157H6v-33h28c-9-59 32-81 87-68v32" id="v"/><g id="b"><use transform="matrix(0.05,0,0,0.05,0,0)" xlink:href="#s"/><use transform="matrix(0.05,0,0,0.05,5,0)" xlink:href="#t"/><use transform="matrix(0.05,0,0,0.05,15.950000000000001,0)" xlink:href="#p"/><use transform="matrix(0.05,0,0,0.05,25.950000000000003,0)" xlink:href="#u"/><use transform="matrix(0.05,0,0,0.05,36.900000000000006,0)" xlink:href="#n"/><use transform="matrix(0.05,0,0,0.05,42.85000000000001,0)" xlink:href="#s"/><use transform="matrix(0.05,0,0,0.05,47.85000000000001,0)" xlink:href="#v"/><use transform="matrix(0.05,0,0,0.05,53.80000000000001,0)" xlink:href="#s"/><use transform="matrix(0.05,0,0,0.05,58.80000000000001,0)" xlink:href="#p"/><use transform="matrix(0.05,0,0,0.05,68.80000000000001,0)" xlink:href="#o"/></g><path d="M67-93c0 74 22 123 53 168H70C40 30 18-18 18-93s22-123 52-168h50c-32 44-53 94-53 168" id="w"/><path d="M137-138c1-29-70-34-71-4 15 46 118 7 119 86 1 83-164 76-172 9l43-7c4 19 20 25 44 25 33 8 57-30 24-41C81-84 22-81 20-136c-2-80 154-74 161-7" id="x"/><path d="M102-93c0 74-22 123-52 168H0C30 29 54-18 53-93c0-74-22-123-53-168h50c30 45 52 94 52 168" id="y"/><g id="c"><use transform="matrix(0.05,0,0,0.05,0,0)" xlink:href="#w"/><use transform="matrix(0.05,0,0,0.05,5.95,0)" xlink:href="#q"/><use transform="matrix(0.05,0,0,0.05,15.949999999999998,0)" xlink:href="#t"/><use transform="matrix(0.05,0,0,0.05,26.899999999999995,0)" xlink:href="#t"/><use transform="matrix(0.05,0,0,0.05,37.85,0)" xlink:href="#o"/><use transform="matrix(0.05,0,0,0.05,44.85,0)" xlink:href="#p"/><use transform="matrix(0.05,0,0,0.05,54.85,0)" xlink:href="#x"/><use transform="matrix(0.05,0,0,0.05,64.85,0)" xlink:href="#x"/><use transform="matrix(0.05,0,0,0.05,74.85,0)" xlink:href="#y"/></g><path fill="#333" d="M240 0l2-218c-23 76-54 145-80 218h-23L58-218 59 0H30v-248h44l77 211c21-75 51-140 76-211h43V0h-30" id="z"/><path fill="#333" d="M100-194c63 0 86 42 84 106H49c0 40 14 67 53 68 26 1 43-12 49-29l28 8c-11 28-37 45-77 45C44 4 14-33 15-96c1-61 26-98 85-98zm52 81c6-60-76-77-97-28-3 7-6 17-6 28h103" id="A"/><path fill="#333" d="M135-143c-3-34-86-38-87 0 15 53 115 12 119 90S17 21 10-45l28-5c4 36 97 45 98 0-10-56-113-15-118-90-4-57 82-63 122-42 12 7 21 19 24 35" id="B"/><path fill="#333" d="M141-36C126-15 110 5 73 4 37 3 15-17 15-53c-1-64 63-63 125-63 3-35-9-54-41-54-24 1-41 7-42 31l-33-3c5-37 33-52 76-52 45 0 72 20 72 64v82c-1 20 7 32 28 27v20c-31 9-61-2-59-35zM48-53c0 20 12 33 32 33 41-3 63-29 60-74-43 2-92-5-92 41" id="C"/><path fill="#333" d="M177-190C167-65 218 103 67 71c-23-6-38-20-44-43l32-5c15 47 100 32 89-28v-30C133-14 115 1 83 1 29 1 15-40 15-95c0-56 16-97 71-98 29-1 48 16 59 35 1-10 0-23 2-32h30zM94-22c36 0 50-32 50-73 0-42-14-75-50-75-39 0-46 34-46 75s6 73 46 73" id="D"/><g id="d"><use transform="matrix(0.05,0,0,0.05,0,0)" xlink:href="#z"/><use transform="matrix(0.05,0,0,0.05,14.950000000000001,0)" xlink:href="#A"/><use transform="matrix(0.05,0,0,0.05,24.950000000000003,0)" xlink:href="#B"/><use transform="matrix(0.05,0,0,0.05,33.95,0)" xlink:href="#B"/><use transform="matrix(0.05,0,0,0.05,42.95,0)" xlink:href="#B"/><use transform="matrix(0.05,0,0,0.05,51.95,0)" xlink:href="#C"/><use transform="matrix(0.05,0,0,0.05,61.95,0)" xlink:href="#D"/><use transform="matrix(0.05,0,0,0.05,71.95,0)" xlink:href="#A"/></g><path fill="#333" d="M24-231v-30h32v30H24zM24 0v-190h32V0H24" id="E"/><path fill="#333" d="M85-194c31 0 48 13 60 33l-1-100h32l1 261h-30c-2-10 0-23-3-31C134-8 116 4 85 4 32 4 16-35 15-94c0-66 23-100 70-100zm9 24c-40 0-46 34-46 75 0 40 6 74 45 74 42 0 51-32 51-76 0-42-9-74-50-73" id="F"/><path fill="#333" d="M117-194c89-4 53 116 60 194h-32v-121c0-31-8-49-39-48C34-167 62-67 57 0H25l-1-190h30c1 10-1 24 2 32 11-22 29-35 61-36" id="G"/><path fill="#333" d="M59-47c-2 24 18 29 38 22v24C64 9 27 4 27-40v-127H5v-23h24l9-43h21v43h35v23H59v120" id="H"/><path fill="#333" d="M101-234c-31-9-42 10-38 44h38v23H63V0H32v-167H5v-23h27c-7-52 17-82 69-68v24" id="I"/><path fill="#333" d="M114-163C36-179 61-72 57 0H25l-1-190h30c1 12-1 29 2 39 6-27 23-49 58-41v29" id="J"/><g id="e"><use transform="matrix(0.05,0,0,0.05,0,0)" xlink:href="#E"/><use transform="matrix(0.05,0,0,0.05,3.95,0)" xlink:href="#F"/><use transform="matrix(0.05,0,0,0.05,13.949999999999998,0)" xlink:href="#A"/><use transform="matrix(0.05,0,0,0.05,23.95,0)" xlink:href="#G"/><use transform="matrix(0.05,0,0,0.05,33.95,0)" xlink:href="#H"/><use transform="matrix(0.05,0,0,0.05,38.95,0)" xlink:href="#E"/><use transform="matrix(0.05,0,0,0.05,42.900000000000006,0)" xlink:href="#I"/><use transform="matrix(0.05,0,0,0.05,47.900000000000006,0)" xlink:href="#E"/><use transform="matrix(0.05,0,0,0.05,51.85,0)" xlink:href="#A"/><use transform="matrix(0.05,0,0,0.05,61.85,0)" xlink:href="#J"/></g><path fill="#333" d="M87 75C49 33 22-17 22-94c0-76 28-126 65-167h31c-38 41-64 92-64 168S80 34 118 75H87" id="K"/><path fill="#333" d="M33-261c38 41 65 92 65 168S71 34 33 75H2C39 34 66-17 66-93S39-220 2-261h31" id="L"/><g id="f"><use transform="matrix(0.05,0,0,0.05,0,0)" xlink:href="#K"/><use transform="matrix(0.05,0,0,0.05,5.95,0)" xlink:href="#H"/><use transform="matrix(0.05,0,0,0.05,10.95,0)" xlink:href="#C"/><use transform="matrix(0.05,0,0,0.05,20.95,0)" xlink:href="#D"/><use transform="matrix(0.05,0,0,0.05,30.950000000000003,0)" xlink:href="#L"/></g><path fill="#333" d="M137 0h-34L2-248h35l83 218 83-218h36" id="M"/><path fill="#333" d="M100-194c62-1 85 37 85 99 1 63-27 99-86 99S16-35 15-95c0-66 28-99 85-99zM99-20c44 1 53-31 53-75 0-43-8-75-51-75s-53 32-53 75 10 74 51 75" id="N"/><path fill="#333" d="M68-38c1 34 0 65-14 84H32c9-13 17-26 17-46H33v-38h35" id="O"/><g id="g"><use transform="matrix(0.05,0,0,0.05,0,0)" xlink:href="#M"/><use transform="matrix(0.05,0,0,0.05,11,0)" xlink:href="#A"/><use transform="matrix(0.05,0,0,0.05,21,0)" xlink:href="#J"/><use transform="matrix(0.05,0,0,0.05,26.950000000000003,0)" xlink:href="#B"/><use transform="matrix(0.05,0,0,0.05,35.95,0)" xlink:href="#E"/><use transform="matrix(0.05,0,0,0.05,39.900000000000006,0)" xlink:href="#N"/><use transform="matrix(0.05,0,0,0.05,49.900000000000006,0)" xlink:href="#G"/><use transform="matrix(0.05,0,0,0.05,59.900000000000006,0)" xlink:href="#O"/></g><path fill="#333" d="M179-190L93 31C79 59 56 82 12 73V49c39 6 53-20 64-50L1-190h34L92-34l54-156h33" id="P"/><path fill="#333" d="M115-194c55 1 70 41 70 98S169 2 115 4C84 4 66-9 55-30l1 105H24l-1-265h31l2 30c10-21 28-34 59-34zm-8 174c40 0 45-34 45-75s-6-73-45-74c-42 0-51 32-51 76 0 43 10 73 51 73" id="Q"/><g id="h"><use transform="matrix(0.05,0,0,0.05,0,0)" xlink:href="#H"/><use transform="matrix(0.05,0,0,0.05,5,0)" xlink:href="#P"/><use transform="matrix(0.05,0,0,0.05,14,0)" xlink:href="#Q"/><use transform="matrix(0.05,0,0,0.05,24,0)" xlink:href="#A"/><use transform="matrix(0.05,0,0,0.05,34,0)" xlink:href="#O"/></g><g id="i"><use transform="matrix(0.05,0,0,0.05,0,0)" xlink:href="#C"/><use transform="matrix(0.05,0,0,0.05,10,0)" xlink:href="#G"/><use transform="matrix(0.05,0,0,0.05,20,0)" xlink:href="#F"/></g><path fill="#333" d="M106-169C34-169 62-67 57 0H25v-261h32l-1 103c12-21 28-36 61-36 89 0 53 116 60 194h-32v-121c2-32-8-49-39-48" id="R"/><g id="j"><use transform="matrix(0.05,0,0,0.05,0,0)" xlink:href="#N"/><use transform="matrix(0.05,0,0,0.05,10,0)" xlink:href="#H"/><use transform="matrix(0.05,0,0,0.05,15,0)" xlink:href="#R"/><use transform="matrix(0.05,0,0,0.05,25,0)" xlink:href="#A"/><use transform="matrix(0.05,0,0,0.05,35,0)" xlink:href="#J"/></g><path fill="#333" d="M96-169c-40 0-48 33-48 73s9 75 48 75c24 0 41-14 43-38l32 2c-6 37-31 61-74 61-59 0-76-41-82-99-10-93 101-131 147-64 4 7 5 14 7 22l-32 3c-4-21-16-35-41-35" id="S"/><g id="k"><use transform="matrix(0.05,0,0,0.05,0,0)" xlink:href="#S"/><use transform="matrix(0.05,0,0,0.05,9,0)" xlink:href="#N"/><use transform="matrix(0.05,0,0,0.05,19,0)" xlink:href="#G"/><use transform="matrix(0.05,0,0,0.05,29,0)" xlink:href="#H"/><use transform="matrix(0.05,0,0,0.05,34,0)" xlink:href="#A"/><use transform="matrix(0.05,0,0,0.05,44,0)" xlink:href="#G"/><use transform="matrix(0.05,0,0,0.05,54,0)" xlink:href="#H"/></g><path fill="#333" d="M84 4C-5 8 30-112 23-190h32v120c0 31 7 50 39 49 72-2 45-101 50-169h31l1 190h-30c-1-10 1-25-2-33-11 22-28 36-60 37" id="T"/><path fill="#333" d="M63-220v92h138v28H63V0H30v-248h175v28H63" id="U"/><path fill="#333" d="M210-169c-67 3-38 105-44 169h-31v-121c0-29-5-50-35-48C34-165 62-65 56 0H25l-1-190h30c1 10-1 24 2 32 10-44 99-50 107 0 11-21 27-35 58-36 85-2 47 119 55 194h-31v-121c0-29-5-49-35-48" id="V"/><g id="l"><use transform="matrix(0.05,0,0,0.05,0,0)" xlink:href="#K"/><use transform="matrix(0.05,0,0,0.05,5.95,0)" xlink:href="#B"/><use transform="matrix(0.05,0,0,0.05,14.949999999999998,0)" xlink:href="#E"/><use transform="matrix(0.05,0,0,0.05,18.9,0)" xlink:href="#D"/><use transform="matrix(0.05,0,0,0.05,28.899999999999995,0)" xlink:href="#G"/><use transform="matrix(0.05,0,0,0.05,38.9,0)" xlink:href="#C"/><use transform="matrix(0.05,0,0,0.05,48.9,0)" xlink:href="#H"/><use transform="matrix(0.05,0,0,0.05,53.900000000000006,0)" xlink:href="#T"/><use transform="matrix(0.05,0,0,0.05,63.900000000000006,0)" xlink:href="#J"/><use transform="matrix(0.05,0,0,0.05,69.85,0)" xlink:href="#A"/><use transform="matrix(0.05,0,0,0.05,79.85,0)" xlink:href="#z"/><use transform="matrix(0.05,0,0,0.05,94.8,0)" xlink:href="#A"/><use transform="matrix(0.05,0,0,0.05,104.80000000000001,0)" xlink:href="#B"/><use transform="matrix(0.05,0,0,0.05,113.80000000000001,0)" xlink:href="#B"/><use transform="matrix(0.05,0,0,0.05,122.80000000000001,0)" xlink:href="#C"/><use transform="matrix(0.05,0,0,0.05,132.8,0)" xlink:href="#D"/><use transform="matrix(0.05,0,0,0.05,142.8,0)" xlink:href="#A"/><use transform="matrix(0.05,0,0,0.05,152.8,0)" xlink:href="#U"/><use transform="matrix(0.05,0,0,0.05,163.75,0)" xlink:href="#J"/><use transform="matrix(0.05,0,0,0.05,169.7,0)" xlink:href="#C"/><use transform="matrix(0.05,0,0,0.05,179.7,0)" xlink:href="#D"/><use transform="matrix(0.05,0,0,0.05,189.7,0)" xlink:href="#V"/><use transform="matrix(0.05,0,0,0.05,204.64999999999998,0)" xlink:href="#A"/><use transform="matrix(0.05,0,0,0.05,214.64999999999998,0)" xlink:href="#G"/><use transform="matrix(0.05,0,0,0.05,224.64999999999998,0)" xlink:href="#H"/><use transform="matrix(0.05,0,0,0.05,229.64999999999998,0)" xlink:href="#L"/></g></defs></g></svg>